{
  "asset": {
    "version": "2.0",
    "generator": "THREE.GLTFExporter"
  },
  "scenes": [
    {
      "nodes": [
        0
      ]
    }
  ],
  "scene": 0,
  "nodes": [
    {
      "children": [
        5
      ],
      "matrix": [
        0.01,
        0,
        0,
        0,
        0,
        0.01,
        0,
        0,
        0,
        0,
        0.01,
        0,
        0,
        0,
        0,
        1
      ]
    },
    {
      "matrix": [
        0.000027377122511489383,
        2.1181749744607182e-36,
        -3.0394711760239208e-21,
        0,
        -3.7993389700298996e-21,
        3.0394711760239223e-21,
        -0.0000273771225114894,
        0,
        6.078942352047838e-21,
        0.000027377122511489406,
        7.598677940059805e-21,
        0,
        -0.00004108781946009681,
        0.0015717630201072068,
        0.00005919096671238894,
        0.9999999999999999
      ],
      "name": "Text",
      "mesh": 1
    },
    {
      "matrix": [
        6209.564205612038,
        -6.894001153958797e-13,
        4.13994203059987e-27,
        0,
        -1.3788002307917388e-12,
        1.37880023079174e-12,
        6209.564205612036,
        0,
        -8.617501442448276e-13,
        -6209.564205612034,
        6.894001153958705e-13,
        0,
        61.732639130764,
        -19.111718103419985,
        -0.7555548949318814,
        1.0000000000000004
      ],
      "name": "Purple",
      "mesh": 0,
      "children": [
        1
      ]
    },
    {
      "matrix": [
        0.9219412465055211,
        -1.9677237950155302e-8,
        -0.38732975355870297,
        0,
        -0.1386387749209988,
        0.93374658771193,
        -0.3299948484821115,
        0,
        0.3616678421981288,
        0.35793478447382937,
        0.8608594902673854,
        0,
        97.8259835230298,
        3.1949411659891283,
        80.05823561200557,
        1
      ],
      "name": "Personal Camera",
      "camera": 0
    },
    {
      "matrix": [
        1,
        0,
        0,
        0,
        0,
        1,
        0,
        0,
        0,
        0,
        1,
        0,
        0,
        1,
        0,
        1
      ],
      "name": "Default Ambient Light"
    },
    {
      "name": "Scene 1",
      "children": [
        2,
        3,
        4
      ]
    }
  ],
  "bufferViews": [
    {
      "buffer": 0,
      "byteOffset": 0,
      "byteLength": 10224,
      "target": 34962,
      "byteStride": 12
    },
    {
      "buffer": 0,
      "byteOffset": 10224,
      "byteLength": 10224,
      "target": 34962,
      "byteStride": 12
    },
    {
      "buffer": 0,
      "byteOffset": 20448,
      "byteLength": 6816,
      "target": 34962,
      "byteStride": 8
    },
    {
      "buffer": 0,
      "byteOffset": 27264,
      "byteLength": 8616,
      "target": 34963
    },
    {
      "buffer": 0,
      "byteOffset": 35880,
      "byteLength": 20088,
      "target": 34962,
      "byteStride": 12
    },
    {
      "buffer": 0,
      "byteOffset": 55968,
      "byteLength": 20088,
      "target": 34962,
      "byteStride": 12
    },
    {
      "buffer": 0,
      "byteOffset": 76056,
      "byteLength": 13392,
      "target": 34962,
      "byteStride": 8
    },
    {
      "buffer": 0,
      "byteOffset": 89448,
      "byteLength": 9948,
      "target": 34963
    }
  ],
  "buffers": [
    {
      "byteLength": 99396,
      "uri": "data:application/octet-stream;base64,"
    }
  ],
  "accessors": [
    {
      "bufferView": 0,
      "componentType": 5126,
      "count": 852,
      "max": [
        0.0010795610724017024,
        0.001550000044517219,
        0.0010700576240196824
      ],
      "min": [
        -0.001082802889868617,
        -0.001550000044517219,
        -0.0011027692817151546
      ],
      "type": "VEC3"
    },
    {
      "bufferView": 1,
      "componentType": 5126,
      "count": 852,
      "max": [
        0.9966965317726135,
        1,
        0.9965803623199463
      ],
      "min": [
        -0.9967330098152161,
        -1,
        -0.9950847029685974
      ],
      "type": "VEC3"
    },
    {
      "bufferView": 2,
      "componentType": 5126,
      "count": 852,
      "max": [
        1,
        1
      ],
      "min": [
        0,
        0
      ],
      "type": "VEC2"
    },
    {
      "bufferView": 3,
      "componentType": 5123,
      "count": 4308,
      "max": [
        851
      ],
      "min": [
        0
      ],
      "type": "SCALAR"
    },
    {
      "bufferView": 4,
      "componentType": 5126,
      "count": 1674,
      "max": [
        25.055999755859375,
        16.21876335144043,
        0
      ],
      "min": [
        -24.832000732421875,
        -15.349235534667969,
        0
      ],
      "type": "VEC3"
    },
    {
      "bufferView": 5,
      "componentType": 5126,
      "count": 1674,
      "max": [
        0,
        0,
        1
      ],
      "min": [
        0,
        0,
        1
      ],
      "type": "VEC3"
    },
    {
      "bufferView": 6,
      "componentType": 5126,
      "count": 1674,
      "max": [
        1,
        1
      ],
      "min": [
        0,
        0
      ],
      "type": "VEC2"
    },
    {
      "bufferView": 7,
      "componentType": 5123,
      "count": 4974,
      "max": [
        1673
      ],
      "min": [
        0
      ],
      "type": "SCALAR"
    }
  ],
  "materials": [
    {
      "pbrMetallicRoughness": {
        "baseColorFactor": [
          0.18116424423948302,
          0.023153366173251366,
          0.3005437944049895,
          1
        ],
        "metallicFactor": 0,
        "roughnessFactor": 0.5
      },
      "doubleSided": false
    },
    {
      "pbrMetallicRoughness": {
        "baseColorFactor": [
          1,
          1,
          1,
          1
        ],
        "metallicFactor": 0,
        "roughnessFactor": 0.995
      },
      "doubleSided": false
    }
  ],
  "meshes": [
    {
      "primitives": [
        {
          "mode": 4,
          "attributes": {
            "POSITION": 0,
            "NORMAL": 1,
            "TEXCOORD_0": 2
          },
          "extras": {
            "parameters": {
              "width": 0.0021623639622703195,
              "height": 0.003100000089034438,
              "depth": 0.002172826905734837,
              "subdivisions": 0
            },
            "type": "NonParametricGeometry"
          },
          "indices": 3,
          "material": 0
        }
      ]
    },
    {
      "primitives": [
        {
          "mode": 4,
          "attributes": {
            "POSITION": 4,
            "NORMAL": 5,
            "TEXCOORD_0": 6
          },
          "extras": {
            "parameters": {
              "type": "TextGeometry",
              "width": 57.42042406166354,
              "height": 38.38952679092195,
              "depth": 0,
              "horizontalAlign": 3,
              "verticalAlign": 1,
              "fontSize": 16,
              "lineHeight": 1.2,
              "letterSpacing": 0,
              "text": {
                "textValue": "Life at\nSkewb"
              },
              "textTransform": 1,
              "font": "Poppins_regular",
              "extrudeBevelSize": 0,
              "extrudeBevelSegments": 1
            },
            "type": "TextGeometry"
          },
          "indices": 7,
          "material": 1
        }
      ]
    }
  ],
  "cameras": [
    {
      "type": "perspective",
      "perspective": {
        "aspectRatio": 2.0146904512067154,
        "yfov": 0.7853981633974483,
        "zfar": 100000,
        "znear": 70
      },
      "name": "Camera"
    }
  ]
}