{
  "asset": {
    "version": "2.0",
    "generator": "THREE.GLTFExporter"
  },
  "scenes": [
    {
      "nodes": [
        0
      ]
    }
  ],
  "scene": 0,
  "nodes": [
    {
      "children": [
        5
      ],
      "matrix": [
        0.01,
        0,
        0,
        0,
        0,
        0.01,
        0,
        0,
        0,
        0,
        0.01,
        0,
        0,
        0,
        0,
        1
      ]
    },
    {
      "matrix": [
        7.598677940059799e-21,
        -3.0394711760239204e-21,
        0.00002737712251148938,
        0,
        0.0000273771225114894,
        3.543215426421575e-36,
        -1.5197355880119616e-20,
        0,
        6.0789423520478356e-21,
        0.00002737712251148939,
        7.5986779400598e-21,
        0,
        -0.00034403434033971817,
        0.0015717630201072072,
        0.00014560679850555676,
        0.9999999999999998
      ],
      "name": "Text 3",
      "mesh": 1
    },
    {
      "matrix": [
        6209.564205612038,
        -6.894001153958798e-13,
        4.13994203059987e-27,
        0,
        -1.3788002307917416e-12,
        6.894001153958701e-13,
        6209.564205612037,
        0,
        -8.617501442448227e-13,
        -6209.564205612034,
        3.447000576979354e-13,
        0,
        54.71909686686809,
        -20.239349606302493,
        0.5000000000000084,
        1.0000000000000004
      ],
      "name": "Blue 02",
      "mesh": 0,
      "children": [
        1
      ]
    },
    {
      "matrix": [
        0.9219412465055211,
        -1.9677237950155302e-8,
        -0.38732975355870297,
        0,
        -0.1386387749209988,
        0.93374658771193,
        -0.3299948484821115,
        0,
        0.3616678421981288,
        0.35793478447382937,
        0.8608594902673854,
        0,
        97.8259835230298,
        3.1949411659891283,
        80.05823561200557,
        1
      ],
      "name": "Personal Camera",
      "camera": 0
    },
    {
      "matrix": [
        1,
        0,
        0,
        0,
        0,
        1,
        0,
        0,
        0,
        0,
        1,
        0,
        0,
        1,
        0,
        1
      ],
      "name": "Default Ambient Light"
    },
    {
      "name": "Scene 1",
      "children": [
        2,
        3,
        4
      ]
    }
  ],
  "bufferViews": [
    {
      "buffer": 0,
      "byteOffset": 0,
      "byteLength": 28368,
      "target": 34962,
      "byteStride": 12
    },
    {
      "buffer": 0,
      "byteOffset": 28368,
      "byteLength": 28368,
      "target": 34962,
      "byteStride": 12
    },
    {
      "buffer": 0,
      "byteOffset": 56736,
      "byteLength": 18912,
      "target": 34962,
      "byteStride": 8
    },
    {
      "buffer": 0,
      "byteOffset": 75648,
      "byteLength": 24168,
      "target": 34963
    },
    {
      "buffer": 0,
      "byteOffset": 99816,
      "byteLength": 17400,
      "target": 34962,
      "byteStride": 12
    },
    {
      "buffer": 0,
      "byteOffset": 117216,
      "byteLength": 17400,
      "target": 34962,
      "byteStride": 12
    },
    {
      "buffer": 0,
      "byteOffset": 134616,
      "byteLength": 11600,
      "target": 34962,
      "byteStride": 8
    },
    {
      "buffer": 0,
      "byteOffset": 146216,
      "byteLength": 8640,
      "target": 34963
    }
  ],
  "buffers": [
    {
      "byteLength": 154856,
      "uri": "data:application/octet-stream;base64,"
    }
  ],
  "accessors": [
    {
      "bufferView": 0,
      "componentType": 5126,
      "count": 2364,
      "max": [
        0.0010419643949717283,
        0.001550000044517219,
        0.001773231546394527
      ],
      "min": [
        -0.0007471271092072129,
        -0.001550000044517219,
        -0.001945098047144711
      ],
      "type": "VEC3"
    },
    {
      "bufferView": 1,
      "componentType": 5126,
      "count": 2364,
      "max": [
        0.9969192147254944,
        1,
        0.9967983365058899
      ],
      "min": [
        -0.9969214797019958,
        -1,
        -0.9961428046226501
      ],
      "type": "VEC3"
    },
    {
      "bufferView": 2,
      "componentType": 5126,
      "count": 2364,
      "max": [
        1,
        1
      ],
      "min": [
        0,
        0
      ],
      "type": "VEC2"
    },
    {
      "bufferView": 3,
      "componentType": 5123,
      "count": 12084,
      "max": [
        2363
      ],
      "min": [
        0
      ],
      "type": "SCALAR"
    },
    {
      "bufferView": 4,
      "componentType": 5126,
      "count": 1450,
      "max": [
        22.097408294677734,
        6.686073303222656,
        0
      ],
      "min": [
        -29.178592681884766,
        -2.301927328109741,
        0
      ],
      "type": "VEC3"
    },
    {
      "bufferView": 5,
      "componentType": 5126,
      "count": 1450,
      "max": [
        0,
        0,
        1
      ],
      "min": [
        0,
        0,
        1
      ],
      "type": "VEC3"
    },
    {
      "bufferView": 6,
      "componentType": 5126,
      "count": 1450,
      "max": [
        1,
        1
      ],
      "min": [
        0,
        0
      ],
      "type": "VEC2"
    },
    {
      "bufferView": 7,
      "componentType": 5123,
      "count": 4320,
      "max": [
        1449
      ],
      "min": [
        0
      ],
      "type": "SCALAR"
    }
  ],
  "materials": [
    {
      "pbrMetallicRoughness": {
        "baseColorFactor": [
          0.11193242782769693,
          0.2704977910022518,
          0.775822218312646,
          1
        ],
        "metallicFactor": 0,
        "roughnessFactor": 0.5
      },
      "doubleSided": false
    },
    {
      "pbrMetallicRoughness": {
        "baseColorFactor": [
          1,
          1,
          1,
          1
        ],
        "metallicFactor": 0,
        "roughnessFactor": 0.995
      },
      "doubleSided": false
    }
  ],
  "meshes": [
    {
      "primitives": [
        {
          "mode": 4,
          "attributes": {
            "POSITION": 0,
            "NORMAL": 1,
            "TEXCOORD_0": 2
          },
          "extras": {
            "parameters": {
              "width": 0.0017890915041789412,
              "height": 0.003100000089034438,
              "depth": 0.003718329593539238,
              "subdivisions": 0
            },
            "type": "NonParametricGeometry"
          },
          "indices": 3,
          "material": 0
        }
      ]
    },
    {
      "primitives": [
        {
          "mode": 4,
          "attributes": {
            "POSITION": 4,
            "NORMAL": 5,
            "TEXCOORD_0": 6
          },
          "extras": {
            "parameters": {
              "type": "TextGeometry",
              "width": 60.205183580732076,
              "height": 18.41214617422051,
              "depth": 0,
              "horizontalAlign": 1,
              "verticalAlign": 1,
              "fontSize": 12,
              "lineHeight": 1.2,
              "letterSpacing": 0,
              "text": {
                "textValue": "Products"
              },
              "textTransform": 1,
              "font": "Poppins_regular",
              "extrudeBevelSize": 0,
              "extrudeBevelSegments": 1
            },
            "type": "TextGeometry"
          },
          "indices": 7,
          "material": 1
        }
      ]
    }
  ],
  "cameras": [
    {
      "type": "perspective",
      "perspective": {
        "aspectRatio": 2.0146904512067154,
        "yfov": 0.7853981633974483,
        "zfar": 100000,
        "znear": 70
      },
      "name": "Camera"
    }
  ]
}