{
  "asset": {
    "version": "2.0",
    "generator": "THREE.GLTFExporter"
  },
  "scenes": [
    {
      "nodes": [
        0
      ]
    }
  ],
  "scene": 0,
  "nodes": [
    {
      "children": [
        5
      ],
      "matrix": [
        0.01,
        0,
        0,
        0,
        0,
        0.01,
        0,
        0,
        0,
        0,
        0.01,
        0,
        0,
        0,
        0,
        1
      ]
    },
    {
      "matrix": [
        0.000027377122511489362,
        2.530868161729692e-36,
        -6.07894235204784e-21,
        0,
        -1.5197355880119621e-21,
        3.0394711760239223e-21,
        -0.0000273771225114894,
        0,
        6.078942352047838e-21,
        0.000027377122511489393,
        7.5986779400598e-21,
        0,
        -0.000010886232398773716,
        0.0015717630201072064,
        -0.00015147937861186142,
        0.9999999999999998
      ],
      "name": "Text 4",
      "mesh": 1
    },
    {
      "matrix": [
        6209.564205612038,
        -6.894001153958798e-13,
        4.13994203059987e-27,
        0,
        -1.3788002307917416e-12,
        6.894001153958701e-13,
        6209.564205612037,
        0,
        -8.617501442448227e-13,
        -6209.564205612034,
        3.447000576979354e-13,
        0,
        67.85345263001884,
        -11.10782827251901,
        0.5000000000000084,
        1.0000000000000004
      ],
      "name": "Green",
      "mesh": 0,
      "children": [
        1
      ]
    },
    {
      "matrix": [
        0.9219412465055211,
        -1.9677237950155302e-8,
        -0.38732975355870297,
        0,
        -0.1386387749209988,
        0.93374658771193,
        -0.3299948484821115,
        0,
        0.3616678421981288,
        0.35793478447382937,
        0.8608594902673854,
        0,
        97.8259835230298,
        3.1949411659891283,
        80.05823561200557,
        1
      ],
      "name": "Personal Camera",
      "camera": 0
    },
    {
      "matrix": [
        1,
        0,
        0,
        0,
        0,
        1,
        0,
        0,
        0,
        0,
        1,
        0,
        0,
        1,
        0,
        1
      ],
      "name": "Default Ambient Light"
    },
    {
      "name": "Scene 1",
      "children": [
        2,
        3,
        4
      ]
    }
  ],
  "bufferViews": [
    {
      "buffer": 0,
      "byteOffset": 0,
      "byteLength": 20304,
      "target": 34962,
      "byteStride": 12
    },
    {
      "buffer": 0,
      "byteOffset": 20304,
      "byteLength": 20304,
      "target": 34962,
      "byteStride": 12
    },
    {
      "buffer": 0,
      "byteOffset": 40608,
      "byteLength": 13536,
      "target": 34962,
      "byteStride": 8
    },
    {
      "buffer": 0,
      "byteOffset": 54144,
      "byteLength": 17256,
      "target": 34963
    },
    {
      "buffer": 0,
      "byteOffset": 71400,
      "byteLength": 20640,
      "target": 34962,
      "byteStride": 12
    },
    {
      "buffer": 0,
      "byteOffset": 92040,
      "byteLength": 20640,
      "target": 34962,
      "byteStride": 12
    },
    {
      "buffer": 0,
      "byteOffset": 112680,
      "byteLength": 13760,
      "target": 34962,
      "byteStride": 8
    },
    {
      "buffer": 0,
      "byteOffset": 126440,
      "byteLength": 10176,
      "target": 34963
    }
  ],
  "buffers": [
    {
      "byteLength": 136616,
      "uri": "data:application/octet-stream;base64,"
    }
  ],
  "accessors": [
    {
      "bufferView": 0,
      "componentType": 5126,
      "count": 1692,
      "max": [
        0.0010168319568037987,
        0.001550000044517219,
        0.0008432778995484114
      ],
      "min": [
        -0.0011242610635235906,
        -0.001550000044517219,
        -0.0004565855488181114
      ],
      "type": "VEC3"
    },
    {
      "bufferView": 1,
      "componentType": 5126,
      "count": 1692,
      "max": [
        0.9965115785598755,
        1,
        0.9915186166763306
      ],
      "min": [
        -0.9827640652656555,
        -1,
        -0.9969198703765869
      ],
      "type": "VEC3"
    },
    {
      "bufferView": 2,
      "componentType": 5126,
      "count": 1692,
      "max": [
        1,
        1
      ],
      "min": [
        0,
        0
      ],
      "type": "VEC2"
    },
    {
      "bufferView": 3,
      "componentType": 5123,
      "count": 8628,
      "max": [
        1691
      ],
      "min": [
        0
      ],
      "type": "SCALAR"
    },
    {
      "bufferView": 4,
      "componentType": 5126,
      "count": 1720,
      "max": [
        26.095903396606445,
        3.7488420009613037,
        0
      ],
      "min": [
        -27.314096450805664,
        -6.461158275604248,
        0
      ],
      "type": "VEC3"
    },
    {
      "bufferView": 5,
      "componentType": 5126,
      "count": 1720,
      "max": [
        0,
        0,
        1
      ],
      "min": [
        0,
        0,
        1
      ],
      "type": "VEC3"
    },
    {
      "bufferView": 6,
      "componentType": 5126,
      "count": 1720,
      "max": [
        1,
        1
      ],
      "min": [
        0,
        0
      ],
      "type": "VEC2"
    },
    {
      "bufferView": 7,
      "componentType": 5123,
      "count": 5088,
      "max": [
        1719
      ],
      "min": [
        0
      ],
      "type": "SCALAR"
    }
  ],
  "materials": [
    {
      "pbrMetallicRoughness": {
        "baseColorFactor": [
          0.08437621153575764,
          0.8307698767709715,
          0.07618538147321911,
          1
        ],
        "metallicFactor": 0,
        "roughnessFactor": 0.5
      },
      "doubleSided": false
    },
    {
      "pbrMetallicRoughness": {
        "baseColorFactor": [
          1,
          1,
          1,
          1
        ],
        "metallicFactor": 0,
        "roughnessFactor": 0.995
      },
      "doubleSided": false
    }
  ],
  "meshes": [
    {
      "primitives": [
        {
          "mode": 4,
          "attributes": {
            "POSITION": 0,
            "NORMAL": 1,
            "TEXCOORD_0": 2
          },
          "extras": {
            "parameters": {
              "width": 0.0021410930203273892,
              "height": 0.003100000089034438,
              "depth": 0.0012998634483665228,
              "subdivisions": 0
            },
            "type": "NonParametricGeometry"
          },
          "indices": 3,
          "material": 0
        }
      ]
    },
    {
      "primitives": [
        {
          "mode": 4,
          "attributes": {
            "POSITION": 4,
            "NORMAL": 5,
            "TEXCOORD_0": 6
          },
          "extras": {
            "parameters": {
              "type": "TextGeometry",
              "width": 55.48819259632267,
              "height": 11.277683788703738,
              "depth": 0,
              "horizontalAlign": 1,
              "verticalAlign": 1,
              "fontSize": 10,
              "lineHeight": 1.2,
              "letterSpacing": 0,
              "text": {
                "textValue": "Citizenship"
              },
              "textTransform": 1,
              "font": "Poppins_regular",
              "extrudeBevelSize": 0,
              "extrudeBevelSegments": 1
            },
            "type": "TextGeometry"
          },
          "indices": 7,
          "material": 1
        }
      ]
    }
  ],
  "cameras": [
    {
      "type": "perspective",
      "perspective": {
        "aspectRatio": 2.0146904512067154,
        "yfov": 0.7853981633974483,
        "zfar": 100000,
        "znear": 70
      },
      "name": "Camera"
    }
  ]
}